PathFileType	4	(X/Y/Z)	C:/Users/beibeiliu/ov580/test_trc/User1\sequence.30_training_dense_left.trc
DataRate	CameraRate	NumFrames	NumMarkers	Units	OrigDataRate	OrigDataStartFrame	OrigNumFrames
120	120	13	19	mm	120	1	227
Frame#	Time	ThumbCMC			ThumbMCP			ThumbIP			ThumbTip			IndexMCP			IndexPIP			IndexTip			MiddleMCP			MiddlePIP			MiddleTip			RingMCP			RingPIP			RingTip			PinkyMCP			PinkyPIP			PinkyTip			BackHand1			BackHand2			BackHand3	
		X0	Y0	Z0	X1	Y1	Z1	X2	Y2	Z2	X3	Y3	Z3	X4	Y4	Z4	X5	Y5	Z5	X6	Y6	Z6	X7	Y7	Z7	X8	Y8	Z8	X9	Y9	Z9	X10	Y10	Z10	X11	Y11	Z11	X12	Y12	Z12	X13	Y13	Z13	X14	Y14	Z14	X15	Y15	Z15	X16	Y16	Z16	X17	Y17	Z17	X18	Y18	Z18	
0	0	-73.3348	-12.0889	62.9429	-49.9773	-21.8423	50.6828	-25.7627	-22.6745	36.3766	-4.86839	-25.4295	26.439	-77.1352	-5.54605	-25.1496	-71.7019	-4.00027	-48.9213	-69.4004	3.08691	-78.5289	-101.946	0.983406	-37.7685	-101.163	4.53348	-64.21	-102.833	9.87009	-93.2289	-126.612	-5.91806	-37.8179	-128.799	-4.75325	-60.0704	-132.236	-6.12211	-85.6954	-159.818	-23.1249	-20.1395	-166.309	-29.5678	-34.5674	-172.449	-33.4062	-60.493	-129.975	5.29836	16.0982	-137.084	11.2917	53.99	-99.6229	7.91952	38.4473	
1	0.00833333	-75.4337	-9.90206	58.0389	-49.8877	-17.3666	47.6416	-30.5508	-20.0389	31.6239	-5.96472	-21.5552	24.462	-80.1282	-3.33422	-28.9084	-76.0773	-0.306946	-55.1828	-75.1759	4.77214	-81.9243	-104.272	1.86941	-42.2985	-103.911	4.09898	-64.0678	-107.3	9.09579	-95.7644	-133.929	-6.36569	-37.6102	-131.128	-6.7294	-62.2903	-135.464	-6.84613	-92.1288	-158.1	-23.9223	-18.0969	-170.104	-34.0719	-39.2381	-177.318	-35.2691	-58.3325	-135.408	4.20553	17.612	-138.103	12.1355	49.4863	-101.056	8.47908	34.649	
2	0.0166667	-76.6147	-9.63663	58.8649	-53.0509	-17.1285	48.2322	-26.4387	-17.2364	30.0112	-10.1547	-20.1281	25.5689	-76.4187	-2.33994	-32.633	-78.4568	-0.449809	-54.2235	-74.1525	4.18317	-78.887	-108.531	1.73322	-39.6776	-106.298	3.82325	-66.204	-106.729	8.05071	-94.9173	-130.206	-7.23329	-36.1577	-133.373	-8.23551	-67.3318	-138.211	-9.25671	-91.6802	-160.86	-25.7171	-19.386	-170.066	-35.8819	-36.9468	-176.32	-39.4627	-58.408	-137.256	3.93823	16.3222	-138.802	9.53943	48.7912	-104.422	8.43703	36.3505	
3	0.025	-72.7581	-7.85466	55.1264	-52.356	-16.2902	45.2195	-28.8701	-16.8426	30.9655	-10.1558	-18.8432	27.7587	-79.8646	-1.89868	-32.1483	-74.8992	2.10205	-56.8694	-80.6246	3.95742	-78.6468	-106.745	1.88796	-38.119	-107.279	4.87962	-68.1896	-110.279	8.31133	-95.8223	-130.23	-6.95789	-38.6626	-134.489	-7.96974	-65.9109	-135.859	-9.65373	-86.9622	-156.221	-25.1025	-19.3133	-166.208	-33.9958	-38.5261	-177.009	-37.5514	-58.52	-135.48	2.685	13.866	-142.828	9.74317	47.199	-102.9	9.1274	33.6775	
4	0.0333333	-77.9027	-8.61709	57.9558	-50.4485	-14.8021	44.5808	-27.2973	-15.187	33.8393	-7.18788	-16.6561	27.989	-77.4021	-1.0019	-28.2853	-76.8173	1.61187	-51.8698	-75.9199	5.64974	-77.3236	-104.506	3.97652	-43.4489	-104.444	5.02318	-70.3145	-107.634	8.61897	-93.9246	-134.793	-7.98845	-37.5979	-133.069	-7.18722	-67.2885	-137.726	-9.89657	-91.4666	-161.516	-27.4959	-19.713	-164.24	-33.8888	-37.7383	-176.522	-38.0348	-59.1783	-136.501	4.47118	14.4317	-137.205	10.5736	46.7582	-103.845	8.40793	33.7234	
5	0.0416667	-76.5177	-7.28611	54.1269	-51.7732	-13.2852	44.8907	-27.9299	-13.4371	28.9406	-6.54827	-14.3309	26.811	-76.8145	-1.05261	-27.1849	-79.2786	1.79327	-56.3493	-76.4632	5.09202	-77.7509	-108.825	2.27476	-42.7002	-105.543	4.79794	-67.4395	-110.999	7.96563	-95.2916	-135.403	-8.44892	-37.6586	-136.153	-8.49811	-66.8528	-138.981	-10.9646	-88.3242	-159.392	-26.5392	-20.3677	-163.602	-34.1449	-35.9348	-175.027	-41.3955	-58.1266	-134.017	4.19195	18.3114	-140.291	9.58278	48.4168	-101.229	8.96099	35.4994	
6	0.05	-74.9443	-4.97221	55.3692	-49.6749	-10.6959	45.4255	-30.8994	-13.6428	32.3216	-9.78881	-12.979	25.5013	-81.0437	-0.364875	-32.431	-76.4602	0.950827	-51.9981	-79.1301	4.73452	-78.1772	-110.46	2.15543	-42.9352	-106.097	3.99559	-65.0241	-109.741	8.99998	-96.6484	-131.175	-8.63864	-35.2527	-135.159	-9.90637	-63.6256	-135.837	-10.6181	-91.7549	-161.29	-28.9071	-19.1546	-167.171	-38.5172	-39.5021	-174.778	-43.3004	-59.7244	-133.797	1.74031	19.1655	-143.018	9.26941	50.0856	-105.775	11.0542	36.3868	
7	0.0583333	-77.0007	-2.68687	60.1397	-52.0022	-8.95503	48.1497	-27.2859	-6.82775	31.0439	-7.81512	-7.62148	27.2352	-80.9425	1.07652	-30.8823	-76.5205	2.60487	-56.4212	-81.1773	5.32005	-78.0346	-109.459	1.85113	-42.3844	-107.982	3.09404	-65.8661	-107.254	7.84608	-99.4243	-131.752	-9.26043	-36.0981	-138.307	-11.8431	-63.5681	-138.976	-14.2098	-87.7465	-161.569	-30.688	-21.0183	-164.838	-38.6836	-36.1269	-173.61	-47.7011	-61.8886	-140.061	1.08977	18.7459	-143.743	8.54646	48.4413	-104.066	12.9185	35.9613	
8	0.0666667	-76.9166	-2.1908	57.4878	-51.9553	-7.30428	45.0922	-31.7349	-7.0099	30.1301	-8.20053	-5.28764	21.6538	-81.8213	1.12769	-28.3725	-79.0478	3.21698	-56.9293	-77.1925	6.66422	-82.0243	-109.796	1.61657	-38.6004	-111.557	2.70302	-69.1414	-110.891	5.10439	-96.8613	-134.435	-10.5493	-37.1051	-138.4	-12.8041	-62.4867	-136.668	-15.438	-89.9322	-160.584	-30.7026	-15.6266	-164.567	-39.6812	-34.3687	-173.544	-49.0657	-59.0164	-137.708	0.0940036	17.8538	-145.43	7.43019	51.698	-106.711	10.8486	37.002	
9	0.075	-80.0525	-1.04689	58.6148	-49.7194	-3.59345	47.1243	-29.7895	-2.57604	33.4728	-12.2634	-5.50211	22.9035	-81.808	1.95752	-29.4764	-83.1295	2.68183	-52.4807	-82.9193	6.3166	-79.4919	-109.581	2.56916	-40.6389	-108.798	3.71384	-66.6781	-111.476	4.07185	-95.5934	-132.045	-9.96345	-37.9535	-139.868	-13.0825	-60.5418	-138.646	-17.503	-87.812	-156.42	-29.8808	-15.9735	-166.025	-42.4985	-35.923	-170.628	-50.4962	-58.4261	-141.455	0.0795245	18.3142	-145.609	8.04902	47.7686	-107.093	12.3803	37.8076	
10	0.0833333	-78.4159	2.21185	56.3879	-52.4151	-1.8101	46.3312	-30.5162	-1.03036	30.4997	-9.30561	-0.350912	21.9447	-84.9926	1.7111	-31.4052	-81.2664	3.42592	-54.1913	-84.3663	6.06759	-82.7059	-111.928	2.24265	-42.7393	-110.638	2.4869	-66.2309	-116.369	2.93981	-95.8	-138.654	-13.381	-35.9165	-139.915	-14.574	-61.2046	-139.073	-17.8408	-89.38	-156.568	-31.7033	-16.3368	-165.405	-43.241	-35.953	-169.93	-52.7041	-57.8149	-142.099	-0.553487	18.3108	-145.547	6.3973	46.632	-110.234	13.3491	35.6057	
11	0.0916667	-82.3896	1.65171	57.4797	-51.4836	1.79029	48.1633	-30.4837	3.1226	31.9039	-13.0362	1.15674	21.269	-84.5217	2.98818	-32.6498	-82.2724	4.21358	-57.4365	-85.5649	5.31317	-79.6902	-113.124	1.44633	-40.4948	-114.55	2.42356	-68.685	-116.864	4.46453	-99.4393	-137.904	-14.1503	-34.4825	-137.518	-15.7601	-61.2632	-141.913	-20.3219	-85.9861	-156.791	-34.6908	-21.7807	-162.36	-44.4555	-34.659	-171.537	-56.7582	-58.4814	-142.819	0.0185777	15.6391	-149.348	6.48187	47.5744	-108.023	12.4192	33.7213	
12	0.1	-82.647	4.50141	52.2722	-55.6553	0.717048	43.783	-30.4946	5.47715	31.3778	-11.1673	7.02304	22.7759	-84.6327	4.30386	-34.4256	-81.4448	5.58732	-56.8852	-85.1677	6.09233	-79.0832	-112.336	1.61983	-43.0878	-115.032	1.70863	-70.7202	-118.924	2.7232	-96.0984	-139.613	-15.7643	-36.5729	-136.738	-17.0184	-65.0142	-140.782	-22.3185	-88.2063	-157.613	-37.4741	-16.7774	-161.762	-47.8406	-33.7987	-167.661	-58.7975	-60.5942	-138.644	-2.30523	14.3599	-147.765	5.33848	49.5262	-111.676	12.2695	34.9996	
